# xmcd
#
# Track frame offsets:
#	151
#	12790
#	28281
#	40552
#	53555
#	67462
#	78467
#	94260
#	107580
#	120507
#	134619
#	147109
#	159584
#	170221
#	181779
#	195341
#	206929
#	218119
#	230767
#	244154
#
# Disc length: 3394 seconds
#
# Revision: 1
# Processed by: cddbd v1.4PL0 Copyright (c) Steve Scherf et al.
# Submitted via: audiograbber 1.81.03
#
DISCID=220d4014
DTITLE=Woody Guthrie - This Land Is Your Land
DYEAR=1900
DGENRE=Blues
TTITLE0=This Land Is Your Land
TTITLE1=Hey Lolly Lolly
TTITLE2=Buffalo Skinners
TTITLE3=John Henry
TTITLE4=Gypsy Davy
TTITLE5=Worried Man Blues
TTITLE6=More Pretty Girls Than One
TTITLE7=Ain`t Gonna Be Treated That Way
TTITLE8=Ranger Command
TTITLE9=Poor Boy
TTITLE10=Pretty Boy Floyd
TTITLE11=Hard Ain`t It Hard
TTITLE12=Stackolee
TTITLE13=Cumberland Gap
TTITLE14=Old Time Religion
TTITLE15=Sourwood Mountain
TTITLE16=Long John
TTITLE17=Columbus Stockade
TTITLE18=Burry Me Beneath The Willow
TTITLE19=Chain Gang Special
EXTD=
EXTT0=
EXTT1=
EXTT2=
EXTT3=
EXTT4=
EXTT5=
EXTT6=
EXTT7=
EXTT8=
EXTT9=
EXTT10=
EXTT11=
EXTT12=
EXTT13=
EXTT14=
EXTT15=
EXTT16=
EXTT17=
EXTT18=
EXTT19=
PLAYORDER=
